<?xml version="1.0" encoding="utf-8"?>
<!-- Generator: Adobe Illustrator 24.1.1, SVG Export Plug-In . SVG Version: 6.00 Build 0)  -->
<svg version="1.1" id="US_UK_Download_on_the" xmlns="http://www.w3.org/2000/svg" xmlns:xlink="http://www.w3.org/1999/xlink"
	 x="0px" y="0px" viewBox="0 0 25.1 23.7" style="enable-background:new 0 0 25.1 23.7;" xml:space="preserve">
<style type="text/css">
	.st0{fill-rule:evenodd;clip-rule:evenodd;fill:#FFFFFF;}
	.st1{fill:#FFFFFF;}
</style>
<g>
	<path class="st0" d="M12.5,0.9c-6.2,0-11.2,5-11.2,11.2c0,4.9,3.2,9.1,7.6,10.6c0.6,0.1,0.8-0.2,0.8-0.5c0-0.3,0-1.1,0-2.1
		C6.6,20.7,6,18.7,6,18.7c-0.5-1.3-1.2-1.6-1.2-1.6c-1-0.7,0.1-0.7,0.1-0.7c1.1,0.1,1.7,1.2,1.7,1.2c1,1.7,2.6,1.2,3.3,0.9
		c0.1-0.7,0.4-1.2,0.7-1.5c-2.5-0.3-5.1-1.2-5.1-5.5c0-1.2,0.4-2.2,1.2-3C6.4,8.2,6,7.1,6.7,5.5c0,0,0.9-0.3,3.1,1.1
		c0.9-0.2,1.8-0.4,2.8-0.4c0.9,0,1.9,0.1,2.8,0.4c2.1-1.4,3.1-1.1,3.1-1.1c0.6,1.5,0.2,2.7,0.1,3c0.7,0.8,1.2,1.8,1.2,3
		c0,4.3-2.6,5.2-5.1,5.5c0.4,0.3,0.8,1,0.8,2.1c0,1.5,0,2.7,0,3.1c0,0.3,0.2,0.6,0.8,0.5c4.4-1.5,7.6-5.7,7.6-10.6
		C23.7,5.9,18.7,0.9,12.5,0.9z"/>
	<path class="st1" d="M5.6,16.9c0,0.1-0.1,0.1-0.2,0c-0.1,0-0.1-0.1-0.1-0.2c0-0.1,0.1-0.1,0.2,0C5.6,16.8,5.6,16.9,5.6,16.9
		L5.6,16.9z M5.4,16.8"/>
	<path class="st1" d="M6,17.5c-0.1,0-0.2,0-0.2-0.1c-0.1-0.1-0.1-0.2,0-0.2c0.1,0,0.2,0,0.2,0.1C6.1,17.3,6.1,17.4,6,17.5L6,17.5z
		 M5.9,17.3"/>
	<path class="st1" d="M6.5,18.1c-0.1,0-0.2,0-0.2-0.1c-0.1-0.1-0.1-0.2,0-0.3c0.1,0,0.2,0,0.2,0.1C6.5,17.9,6.5,18,6.5,18.1
		L6.5,18.1z M6.5,18.1"/>
	<path class="st1" d="M7.1,18.7c-0.1,0.1-0.2,0-0.3,0c-0.1-0.1-0.1-0.2-0.1-0.3c0.1-0.1,0.2,0,0.3,0C7.1,18.5,7.1,18.7,7.1,18.7
		L7.1,18.7z M7.1,18.7"/>
	<path class="st1" d="M7.9,19.1c0,0.1-0.2,0.1-0.3,0.1c-0.1,0-0.2-0.1-0.2-0.2c0-0.1,0.2-0.1,0.3-0.1C7.9,18.9,7.9,19,7.9,19.1
		L7.9,19.1z M7.9,19.1"/>
	<path class="st1" d="M8.8,19.1c0,0.1-0.1,0.2-0.2,0.2c-0.1,0-0.2-0.1-0.2-0.2c0-0.1,0.1-0.2,0.2-0.2C8.7,19,8.8,19.1,8.8,19.1
		L8.8,19.1z M8.8,19.1"/>
	<path class="st1" d="M9.7,19c0,0.1-0.1,0.2-0.2,0.2c-0.1,0-0.2,0-0.3-0.1c0-0.1,0.1-0.2,0.2-0.2C9.5,18.9,9.7,18.9,9.7,19L9.7,19z
		 M9.7,19"/>
</g>
</svg>
