<?xml version="1.0" encoding="utf-8"?>
<!-- Generator: Adobe Illustrator 24.1.1, SVG Export Plug-In . SVG Version: 6.00 Build 0)  -->
<svg version="1.1" id="Livello_1" xmlns="http://www.w3.org/2000/svg" xmlns:xlink="http://www.w3.org/1999/xlink" x="0px" y="0px"
	 viewBox="0 0 1047.6 1126.7" style="enable-background:new 0 0 1047.6 1126.7;" xml:space="preserve">
<style type="text/css">
	.st0{fill-rule:evenodd;clip-rule:evenodd;fill:url(#SVGID_1_);}
	.st1{fill-rule:evenodd;clip-rule:evenodd;fill:url(#SVGID_2_);}
	.st2{fill-rule:evenodd;clip-rule:evenodd;fill:url(#SVGID_3_);}
	.st3{fill-rule:evenodd;clip-rule:evenodd;fill:url(#SVGID_4_);}
	.st4{opacity:0.2;fill-rule:evenodd;clip-rule:evenodd;enable-background:new    ;}
	.st5{opacity:0.12;fill-rule:evenodd;clip-rule:evenodd;enable-background:new    ;}
	.st6{opacity:0.25;fill-rule:evenodd;clip-rule:evenodd;fill:#FFFFFF;enable-background:new    ;}
</style>
<linearGradient id="SVGID_1_" gradientUnits="userSpaceOnUse" x1="3461.3887" y1="-451.1754" x2="3403.5735" y2="-421.3316" gradientTransform="matrix(11.64 0 0 22.55 -39743.5664 10285.9063)">
	<stop  offset="0" style="stop-color:#00A0FF"/>
	<stop  offset="6.569999e-03" style="stop-color:#00A1FF"/>
	<stop  offset="0.2601" style="stop-color:#00BEFF"/>
	<stop  offset="0.5122" style="stop-color:#00D2FF"/>
	<stop  offset="0.7604" style="stop-color:#00DFFF"/>
	<stop  offset="1" style="stop-color:#00E3FF"/>
</linearGradient>
<path class="st0" d="M91.3,64.8C79.7,77.3,73,96.4,73,121.4v886.7c0,25,6.7,44.1,18.7,56.1l3.1,2.7l496.8-496.8V559L94.4,62.1
	L91.3,64.8z"/>
<linearGradient id="SVGID_2_" gradientUnits="userSpaceOnUse" x1="3437.9309" y1="-416.3866" x2="3331.8298" y2="-416.3866" gradientTransform="matrix(9.145 0 0 7.7 -30410.2617 3770.9236)">
	<stop  offset="0" style="stop-color:#FFE000"/>
	<stop  offset="0.4087" style="stop-color:#FFBD00"/>
	<stop  offset="0.7754" style="stop-color:#FFA500"/>
	<stop  offset="1" style="stop-color:#FF9C00"/>
</linearGradient>
<path class="st1" d="M756.9,736.2L591.2,570.5v-11.6l165.7-165.7l3.6,2.2l196,111.4c56.1,31.6,56.1,83.8,0,115.8L760.5,734
	C760.5,734,756.9,736.2,756.9,736.2z"/>
<linearGradient id="SVGID_3_" gradientUnits="userSpaceOnUse" x1="3531.2695" y1="-416.4169" x2="3470.5103" y2="-337.5919" gradientTransform="matrix(15.02 0 0 11.5775 -52371.3125 5477.9131)">
	<stop  offset="0" style="stop-color:#FF3A44"/>
	<stop  offset="1" style="stop-color:#C31162"/>
</linearGradient>
<path class="st2" d="M760.5,734L591.2,564.7L91.3,1064.6c18.3,19.6,49,21.8,83.3,2.7L760.5,734"/>
<linearGradient id="SVGID_4_" gradientUnits="userSpaceOnUse" x1="3484.467" y1="-492.0508" x2="3511.5981" y2="-456.8333" gradientTransform="matrix(15.02 0 0 11.5715 -52371.3125 5463.6797)">
	<stop  offset="0" style="stop-color:#32A071"/>
	<stop  offset="6.850000e-02" style="stop-color:#2DA771"/>
	<stop  offset="0.4762" style="stop-color:#15CF74"/>
	<stop  offset="0.8009" style="stop-color:#06E775"/>
	<stop  offset="1" style="stop-color:#00F076"/>
</linearGradient>
<path class="st3" d="M760.5,395.4L174.6,62.6c-34.3-19.6-65.1-16.9-83.3,2.7l499.9,499.4L760.5,395.4z"/>
<path class="st4" d="M756.9,730.4L175,1061c-32.5,18.7-61.5,17.4-80.2,0.4l-3.1,3.1l3.1,2.7c18.7,16.9,47.7,18.3,80.2-0.4L760.9,734
	L756.9,730.4z"/>
<path class="st5" d="M956.5,616.8L756.4,730.4l3.6,3.6l196-111.4c28.1-16,41.9-37,41.9-57.9C996.2,583.9,981.9,602.1,956.5,616.8z"
	/>
<path class="st6" d="M174.6,68.4l781.9,444.2c25.4,14.3,39.7,33,41.9,52.1c0-20.9-13.8-41.9-41.9-57.9L174.6,62.6
	C118.5,30.5,73,57.3,73,121.4v5.8C73,63,118.5,36.7,174.6,68.4z"/>
</svg>
