<?xml version="1.0" encoding="utf-8"?>
<!-- Generator: Adobe Illustrator 24.1.1, SVG Export Plug-In . SVG Version: 6.00 Build 0)  -->
<svg version="1.1" id="US_UK_Download_on_the" xmlns="http://www.w3.org/2000/svg" xmlns:xlink="http://www.w3.org/1999/xlink"
	 x="0px" y="0px" viewBox="0 0 25.1 23.7" style="enable-background:new 0 0 25.1 23.7;" xml:space="preserve">
<style type="text/css">
	.st0{fill:#733999;}
	.st1{fill:#FFFFFF;}
</style>
<circle class="st0" cx="12.5" cy="11.9" r="11.1"/>
<path class="st1" d="M9.6,15.3c0.5-0.2,1-0.4,1.5-0.5c0.1,0,0.1,0,0.2,0c0.3-0.1,0.6-0.1,1-0.1v-2.5H9.2C9.2,13.2,9.3,14.3,9.6,15.3
	z"/>
<path class="st1" d="M15.7,7.9c0.1,0,0.1-0.1,0.2-0.1c0,0,0.1,0,0.1-0.1c0.4-0.2,0.7-0.5,1.1-0.7c-0.8-0.7-1.7-1.3-2.7-1.5
	c0.3,0.3,0.6,0.8,0.9,1.3C15.4,7.1,15.6,7.5,15.7,7.9z"/>
<path class="st1" d="M11.7,5.3c-0.6,0.3-1.1,0.9-1.5,1.8C10,7.3,9.9,7.7,9.8,8c0.5,0.2,1,0.4,1.5,0.5c0,0,0.1,0,0.1,0
	c0.3,0.1,0.6,0.1,0.9,0.1V5.2c0,0,0,0-0.1,0C12,5.3,11.9,5.3,11.7,5.3z"/>
<path class="st1" d="M11.2,15.2c-0.5,0.1-1,0.3-1.5,0.5c0.1,0.3,0.3,0.7,0.4,1c0.4,0.9,1,1.5,1.5,1.8c0.2,0,0.3,0,0.5,0
	c0,0,0,0,0.1,0v-3.4c-0.3,0-0.6,0.1-0.9,0.1C11.3,15.2,11.3,15.2,11.2,15.2z"/>
<path class="st1" d="M11.1,9c-0.5-0.1-1-0.3-1.5-0.5c-0.3,1-0.4,2-0.5,3.2h3.1V9.1c-0.4,0-0.6-0.1-1-0.1C11.3,9,11.2,9,11.1,9z"/>
<path class="st1" d="M9.2,8.3C9.2,8.2,9.1,8.2,9,8.1c0,0-0.1-0.1-0.1-0.1C8.5,7.8,8.1,7.5,7.8,7.2C6.6,8.4,6,10,5.9,11.6h2.9
	C8.8,10.4,9,9.3,9.2,8.3z"/>
<path class="st1" d="M9.4,15.9C9.3,16,9.3,16,9.2,16c0,0-0.1,0.1-0.1,0.1c-0.3,0.2-0.7,0.5-1,0.7c0.7,0.6,1.6,1.1,2.6,1.4
	c-0.3-0.3-0.6-0.8-0.9-1.3C9.7,16.6,9.5,16.3,9.4,15.9z"/>
<path class="st1" d="M9,15.6c0.1,0,0.2-0.1,0.2-0.1c-0.3-1-0.5-2.1-0.5-3.3H5.9c0.1,1.7,0.8,3.2,1.9,4.4c0.3-0.3,0.7-0.6,1.1-0.8
	C8.9,15.6,9,15.6,9,15.6z"/>
<path class="st1" d="M9.2,7.7c0.1,0,0.1,0.1,0.2,0.1c0.1-0.4,0.3-0.7,0.4-1c0.3-0.5,0.6-0.9,0.9-1.3c-1,0.3-1.8,0.8-2.6,1.4
	c0.3,0.3,0.6,0.5,1,0.7C9.1,7.7,9.2,7.7,9.2,7.7z"/>
<path class="st1" d="M15.8,15.3c0.1,0,0.2,0.1,0.3,0.1c0,0,0.1,0.1,0.1,0.1c0.4,0.2,0.8,0.5,1.2,0.8c1-1.1,1.7-2.6,1.7-4.2h-2.9
	C16.3,13.3,16.1,14.3,15.8,15.3z"/>
<path class="st1" d="M13.8,8.6c0.5-0.1,1-0.2,1.5-0.4C15.2,7.7,15,7.4,14.9,7c-0.4-0.9-1-1.5-1.5-1.8c-0.2,0-0.3,0-0.5,0
	c0,0-0.1,0-0.1,0v3.4c0.3,0,0.6,0,0.9-0.1C13.7,8.6,13.8,8.6,13.8,8.6z"/>
<path class="st1" d="M15.9,15.9c-0.1,0-0.1-0.1-0.2-0.1c-0.1,0.4-0.3,0.8-0.5,1.2c-0.3,0.5-0.6,0.9-0.9,1.3c1-0.3,2-0.8,2.7-1.5
	c-0.3-0.3-0.7-0.5-1.1-0.7C16,15.9,15.9,15.9,15.9,15.9z"/>
<path class="st1" d="M16.2,8.2c0,0-0.1,0-0.1,0.1c-0.1,0-0.2,0.1-0.3,0.1c0.3,1,0.4,2.1,0.4,3.2h2.9c-0.1-1.6-0.7-3.1-1.7-4.2
	C17,7.7,16.6,8,16.2,8.2z"/>
<path class="st1" d="M15.5,8.6c-0.5,0.2-1,0.4-1.6,0.4c0,0-0.1,0-0.2,0c-0.3,0-0.7,0.1-1,0.1v2.5h3.1C15.9,10.5,15.7,9.5,15.5,8.6z"
	/>
<path class="st1" d="M13.9,14.7c0.5,0.1,1.1,0.2,1.6,0.4c0.3-0.9,0.4-2,0.4-3h-3.1v2.5c0.3,0,0.7,0,1,0.1
	C13.8,14.7,13.9,14.7,13.9,14.7z"/>
<path class="st1" d="M15.3,15.6c-0.5-0.2-1-0.3-1.5-0.4c0,0-0.1,0-0.1,0c-0.3,0-0.6-0.1-0.9-0.1v3.4c0,0,0,0,0.1,0
	c0.2,0,0.3,0,0.5,0c0.6-0.3,1.1-0.9,1.5-1.8C15,16.4,15.2,16,15.3,15.6z"/>
</svg>
